<?xml version="1.0" standalone="no"?>
<!DOCTYPE svg PUBLIC "-//W3C//DTD SVG 20010904//EN"
 "http://www.w3.org/TR/2001/REC-SVG-20010904/DTD/svg10.dtd">
<svg version="1.0" xmlns="http://www.w3.org/2000/svg"
 width="550.000000pt" height="550.000000pt" viewBox="0 0 550.000000 550.000000"
 preserveAspectRatio="xMidYMid meet">
<metadata>
Created by potrace 1.11, written by Peter Selinger 2001-2013
</metadata>
<g transform="translate(0.000000,550.000000) scale(0.100000,-0.100000)"
fill="#000000" stroke="none">
<path d="M2565 5423 c-409 -40 -710 -125 -1054 -298 -196 -98 -375 -223 -587
-411 -146 -128 -337 -358 -448 -537 -272 -441 -409 -911 -410 -1412 0 -169 5
-278 18 -355 2 -14 7 -47 11 -75 11 -83 55 -273 90 -391 59 -197 172 -439 302
-649 41 -66 78 -122 81 -125 4 -3 34 -39 67 -80 32 -41 61 -77 64 -80 4 -3 38
-41 76 -85 39 -44 81 -89 94 -99 13 -11 31 -27 40 -36 19 -20 88 -80 150 -130
24 -19 58 -47 75 -61 44 -37 183 -129 194 -129 6 0 12 -3 14 -7 8 -18 215
-125 374 -193 225 -97 490 -163 784 -197 114 -14 471 -7 590 11 143 21 135 20
255 46 350 75 759 264 1025 473 131 103 284 240 338 302 28 33 62 71 75 85
267 290 519 793 593 1190 3 14 9 44 14 67 5 22 13 65 16 95 3 29 8 56 10 60
10 16 19 208 18 378 -3 493 -140 958 -410 1397 -53 86 -195 279 -224 303 -3 3
-36 40 -73 83 -61 71 -178 180 -282 264 -123 99 -159 125 -255 184 -342 213
-748 357 -1115 395 -27 3 -59 8 -70 11 -21 6 -387 11 -440 6z"/>
</g>
</svg>
